<svg width="378" height="47" viewBox="0 0 378 47" fill="none" xmlns="http://www.w3.org/2000/svg">
<g clip-path="url(#clip0_340_3704)">
<path d="M30.15 23.9C30.15 31.3 29.0499 36.8 17.85 36.8C6.64995 36.8 5.14995 31.5 5.14995 23.9V6C5.14995 2 3.44995 1.6 0.449951 1.6V0.5H14.55V1.6C11.65 1.6 9.84995 2 9.84995 6V23.8C9.84995 29.3 11.15 34.6 18.05 34.6C25.05 34.6 27.05 30.1 27.05 23.8V6C27.05 2 25.25 1.6 22.35 1.6V0.5H34.75V1.6C31.85 1.6 30.05 2 30.05 6V23.9H30.15Z" fill="#182B49"/>
<path d="M59.8499 35.3C57.1499 36.2 54.1499 36.8 50.2499 36.8C39.5499 36.8 34.3499 28.7 34.3499 17.2C34.3499 7.3 37.5499 0 49.0499 0C52.5499 0 56.0499 0.5 59.3499 1.5L59.8499 9.9H58.4499C57.7499 6.9 55.6499 2.1 48.9499 2.1C40.2499 2.1 39.6499 11.3 39.6499 16.8C39.6499 23.7 41.1499 34.4 52.9499 34.4C55.3499 34.4 57.6499 34 59.8499 33V35.3Z" fill="#182B49"/>
<path d="M88.6499 8.2C88.1499 5.4 85.9499 2 80.2499 2C76.6499 2 73.4499 4.3 73.4499 7.8C73.4499 12.6 79.8499 14.1 84.5499 16.9C89.2499 19.7 91.6499 21.6 91.6499 26.7C91.6499 33.5 85.7499 36.7 78.3499 36.7C75.2499 36.6 72.1499 36.3 69.1499 35.7L68.7499 28.2H70.1499C70.5499 31 73.0499 34.4 78.8499 34.4C83.5499 34.4 86.6499 31.3 86.6499 27.6C86.6499 21.8 77.7499 20.1 72.7499 16.2C70.3499 14.4 69.2499 12.4 69.2499 9C69.2499 2.6 74.5499 -0.1 81.3499 -0.1C84.1499 -0.1 86.9499 0.2 89.6499 0.8L90.0499 8.2H88.6499Z" fill="#182B49"/>
<path d="M106.45 25.7C104.25 25.8 98.0499 26.2 98.0499 30.6C98.0499 33.1 99.6499 34.7 101.25 34.7C104.35 34.7 106.35 31.7 106.35 28.5V25.7H106.45ZM113.55 36.3C112.45 36.6 111.25 36.7 110.05 36.7C107.25 36.7 106.45 35.3 106.45 33.2H106.35C104.85 35.5 102.25 36.8 99.5499 36.7C96.2499 36.7 93.8499 34.4 93.8499 31.3C93.8499 24.4 102.85 24.4 106.45 24.1V22.3C106.45 18.9 106.35 15.4 102.35 15.4C99.4499 15.4 98.9499 16.6 98.9499 18.2C98.9499 19.7 97.5499 20.7 96.7499 20.7C96.1499 20.7 95.5499 20.5 95.1499 20.1C94.7499 19.7 94.4499 19.1 94.4499 18.5C94.4499 15.4 99.1499 13.8 102.35 13.8C108.85 13.8 110.05 16.9 110.05 21.4V33.2C110.05 34.8 110.65 35.4 112.15 35.4C112.55 35.4 113.05 35.3 113.45 35.2L113.55 36.3Z" fill="#182B49"/>
<path d="M114.65 35.5C116.65 35.5 118.35 35.1 118.35 32V19C118.35 16.1 116.15 16 114.65 15.9V15L122.05 13.9V20.2H122.15C122.75 18.4 124.95 13.9 129.65 13.9C134.35 13.9 135.15 16.7 135.15 21.1V32C135.15 35.1 136.75 35.5 138.85 35.5V36.3H127.85V35.5C129.85 35.5 131.55 35.1 131.55 32V22.2C131.55 18.1 131.45 16.3 128.35 16.3C125.25 16.3 122.15 21.7 122.15 26.2V32.1C122.15 35.2 123.75 35.6 125.85 35.6V36.4H114.75V35.5H114.65Z" fill="#182B49"/>
<path d="M153.65 29.6C153.65 33.5 154.05 34.1 156.75 34.1C165.95 34.1 169.75 29.2 169.75 18.4C169.75 8.5 166.95 2.6 156.75 2.6C154.05 2.6 153.65 2.9 153.65 7.1V29.6ZM144.25 35.2C147.15 35.2 148.95 34.8 148.95 30.8V6C148.95 2 147.15 1.6 144.25 1.6V0.5H156.75C165.65 0.5 175.05 2.4 175.05 18.4C175.05 34.4 165.15 36.2 156.75 36.2H144.25V35.2Z" fill="#182B49"/>
<path d="M179.75 6.7C179.75 5.2 180.95 4 182.45 4C183.95 4 185.15 5.2 185.15 6.7C185.15 8.2 183.95 9.4 182.45 9.4C180.95 9.4 179.75 8.2 179.75 6.7ZM177.05 35.5C179.05 35.5 180.75 35.1 180.75 32V19C180.75 16.1 178.55 16 177.05 15.9V15L184.45 13.9V32C184.45 35.1 186.05 35.5 188.15 35.5V36.3H177.15V35.5H177.05Z" fill="#182B49"/>
<path d="M201.65 21.2C201.65 18.7 200.75 15.4 197.15 15.4C193.45 15.4 192.05 19.5 192.05 21.2H201.65ZM205.35 35.9C203.55 36.5 201.65 36.8 199.65 36.8C192.25 36.8 188.15 32.7 188.15 24.7C188.15 17.7 190.95 13.9 197.85 13.9C202.15 13.9 206.05 16.3 206.05 21.8V22.9H192.15C192.15 26.9 194.05 35.1 202.05 35.1C203.25 35.1 204.35 34.9 205.45 34.5V35.9H205.35Z" fill="#182B49"/>
<path d="M217.25 27.6C221.25 27.6 221.75 24.5 221.75 21.9C221.75 18.3 220.55 15.5 217.05 15.5C213.65 15.5 212.55 18.3 212.55 21C212.65 23.8 213.85 27.6 217.25 27.6ZM213.25 35.9C212.35 36.6 210.95 37.4 210.95 39.6C210.95 41.8 213.45 44.8 217.65 44.8C221.75 44.8 226.05 42.6 226.05 39.1C226.05 36.7 224.05 35.9 221.65 35.9H213.25ZM221.45 32.5C223.75 32.5 229.05 32.6 229.05 37.9C229.05 43.2 223.65 46.3 217.35 46.3C212.65 46.3 207.85 44.5 207.85 40.2C207.85 37.3 210.05 36 211.55 35.2C210.25 34.6 209.45 33.3 209.45 31.8C209.45 30 210.95 28.2 211.55 27.7C210.45 26.8 208.75 25.3 208.75 21.3C208.75 15.2 213.25 13.8 217.75 13.8C219.45 13.7 221.15 14.1 222.65 15C223.45 13.2 224.55 9.9 227.45 9.9C228.05 9.9 228.65 10.1 229.15 10.5C229.65 10.9 229.85 11.5 229.75 12.2C229.75 12.8 229.55 13.4 229.15 13.8C228.75 14.2 228.15 14.4 227.55 14.4C226.35 14.4 226.05 13.8 225.45 13.8C224.85 13.8 223.95 15.2 223.75 15.9C225.15 17.5 225.95 19.5 225.85 21.6C225.85 26.4 222.85 29.1 217.15 29.1C215.65 29.2 214.15 28.9 212.75 28.4C212.25 29 211.95 29.7 211.85 30.5C211.85 32.4 214.25 32.4 215.75 32.4L221.45 32.5Z" fill="#182B49"/>
<path d="M239.05 35.2C243.85 35.2 244.75 29.3 244.75 25.3C244.75 21.3 243.85 15.4 239.05 15.4C234.25 15.4 233.35 21.3 233.35 25.3C233.35 29.3 234.25 35.2 239.05 35.2ZM229.05 25.3C229.05 18.2 232.95 13.9 239.05 13.9C245.15 13.9 249.05 18.2 249.05 25.3C249.05 32.4 245.15 36.8 239.05 36.8C232.85 36.8 229.05 32.5 229.05 25.3Z" fill="#182B49"/>
<path d="M256.15 35.2C259.05 35.2 260.85 34.8 260.85 30.8V6C260.85 2 259.05 1.6 256.15 1.6V0.5H270.25V1.6C267.35 1.6 265.55 2 265.55 6V16.8H280.75V6C280.75 2 278.95 1.6 276.05 1.6V0.5H290.15V1.6C287.25 1.6 285.45 2 285.45 6V30.8C285.45 34.8 287.15 35.2 290.15 35.2V36.3H276.05V35.2C278.95 35.2 280.75 34.8 280.75 30.8V18.9H265.55V30.8C265.55 34.8 267.25 35.2 270.25 35.2V36.3H256.15V35.2Z" fill="#182B49"/>
<path d="M303.15 21.2C303.15 18.7 302.25 15.4 298.65 15.4C294.95 15.4 293.55 19.5 293.55 21.2H303.15ZM306.75 35.9C304.95 36.5 303.05 36.8 301.05 36.8C293.65 36.8 289.55 32.7 289.55 24.7C289.55 17.7 292.35 13.9 299.25 13.9C303.55 13.9 307.45 16.3 307.45 21.8V22.9H293.45C293.45 26.9 295.35 35.1 303.35 35.1C304.55 35.1 305.65 34.9 306.75 34.5V35.9Z" fill="#182B49"/>
<path d="M321.35 25.6C319.15 25.7 312.95 26.1 312.95 30.5C312.95 33 314.55 34.6 316.15 34.6C319.25 34.6 321.25 31.6 321.25 28.4V25.6H321.35ZM328.35 36.3C327.25 36.6 326.05 36.7 324.85 36.7C322.05 36.7 321.25 35.3 321.25 33.2H321.15C319.65 35.5 317.15 36.9 314.35 36.7C311.05 36.7 308.65 34.4 308.65 31.3C308.65 24.4 317.65 24.4 321.25 24.1V22.3C321.25 18.9 321.15 15.4 317.15 15.4C314.25 15.4 313.75 16.6 313.75 18.2C313.75 19.7 312.35 20.7 311.55 20.7C310.95 20.7 310.35 20.5 309.95 20.1C309.55 19.7 309.25 19.1 309.25 18.5C309.25 15.4 313.95 13.8 317.15 13.8C323.65 13.8 324.85 16.9 324.85 21.4V33.2C324.85 34.8 325.45 35.4 326.95 35.4C327.35 35.4 327.85 35.3 328.25 35.2L328.35 36.3Z" fill="#182B49"/>
<path d="M327.85 35.5C329.85 35.5 331.55 35.1 331.55 32V8.1C331.55 5.3 329.35 5.2 327.85 5V4.2L335.25 3.1V31.9C335.25 35 336.85 35.4 338.95 35.4V36.2H327.95V35.5H327.85Z" fill="#182B49"/>
<path d="M352.25 36.5C351.45 36.6 350.75 36.7 349.95 36.7C342.75 36.7 342.35 34.9 342.35 29.6V15.9H338.45V14.3C342.35 14.3 344.85 12.4 344.85 7.2H346.05V14.3H352.15V15.9H346.05V31C346.05 34.7 347.65 35.2 350.25 35.2C350.85 35.2 351.55 35.1 352.15 35L352.25 36.5Z" fill="#182B49"/>
<path d="M353.25 35.5C355.25 35.5 356.95 35.1 356.95 32V8.1C356.95 5.3 354.75 5.2 353.25 5V4.2L360.65 3.1V20.1H360.75C361.35 18.3 363.55 13.8 368.35 13.8C373.15 13.8 373.85 16.6 373.85 21V31.9C373.85 35 375.45 35.4 377.55 35.4V36.2H366.55V35.4C368.45 35.4 370.25 35 370.25 31.9V22.1C370.25 18 370.15 16.2 367.05 16.2C363.95 16.2 360.85 21.6 360.85 26.2V32C360.85 35.1 362.45 35.5 364.55 35.5V36.3H353.45V35.5H353.25Z" fill="#182B49"/>
</g>
<defs>
<clipPath id="clip0_340_3704">
<rect width="377.1" height="46.5" fill="white" transform="translate(0.449951)"/>
</clipPath>
</defs>
</svg>
