<?xml version="1.0" encoding="utf-8"?>
<!-- Generator: Adobe Illustrator 23.0.1, SVG Export Plug-In . SVG Version: 6.00 Build 0)  -->
<svg version="1.1" id="Layer_1" xmlns="http://www.w3.org/2000/svg" xmlns:xlink="http://www.w3.org/1999/xlink" x="0px" y="0px"
	 viewBox="0 0 145 18" width="100%" style="enable-background:new 0 0 145 18;" xml:space="preserve">
<style type="text/css">
	.st0{fill:#13294B;}
</style>
<g id="elements">
	<g>
		<path class="st0" d="M11.9,9.3c0,2.8-0.4,4.9-4.7,4.9c-4.2,0-4.9-2.1-4.9-4.9V2.5c0-1.5-0.7-1.7-1.8-1.7V0.4h5.4v0.4
			c-1.1,0-1.8,0.1-1.8,1.7v6.8c0,2.1,0.5,4.1,3.2,4.1c2.9,0,3.4-1.7,3.4-4.1V2.5c0-1.5-0.7-1.7-1.8-1.7V0.4h4.7v0.4
			c-1.1,0-1.8,0.1-1.8,1.7L11.9,9.3L11.9,9.3z"/>
		<path class="st0" d="M23.2,13.6c-1,0.4-2.1,0.6-3.7,0.6c-4.1,0-6.1-3.1-6.1-7.5c0-3.8,1.2-6.6,5.6-6.6c1.6,0,3,0.3,3.9,0.6
			l0.2,3.2h-0.5c-0.3-1.2-1.1-3-3.6-3c-3.3,0-3.6,3.5-3.6,5.6c0,2.6,0.6,6.7,5.1,6.7c1.4,0,2.1-0.3,2.6-0.5L23.2,13.6L23.2,13.6z"/>
		<path class="st0" d="M34.2,3.3C34,2.2,33.2,1,31,1c-1.4,0-2.6,0.9-2.6,2.2c0,1.8,2.4,2.4,4.2,3.5c1.6,0.9,2.7,1.8,2.7,3.7
			c0,2.6-2.2,3.8-5.1,3.8c-1.4,0-3-0.3-3.5-0.4l-0.1-2.9h0.5c0.2,1.1,1.1,2.4,3.3,2.4c1.8,0,3-1.2,3-2.6c0-2.2-3.4-2.9-5.3-4.3
			c-0.9-0.7-1.3-1.4-1.3-2.8c0-2.5,2-3.5,4.6-3.5c1.4,0,2.2,0.2,3.2,0.3l0.1,2.8C34.7,3.3,34.2,3.3,34.2,3.3z"/>
		<path class="st0" d="M43.7,14c-0.2,0.1-0.7,0.2-1.3,0.2c-1.1,0-1.4-0.6-1.4-1.3h0c-0.6,0.8-1.3,1.3-2.6,1.3
			c-1.3,0-2.2-0.9-2.2-2.1c0-2.6,3.4-2.6,4.8-2.8V8.7C41,7.4,41,6,39.5,6c-1.1,0-1.3,0.5-1.3,1.1c0,0.8-0.5,1-0.9,1
			c-0.5,0-0.9-0.3-0.9-0.8c0-1.2,1.8-1.8,3-1.8c2.5,0,3,1.2,3,2.9v4.5c0,0.6,0.2,0.9,0.8,0.9c0.2,0,0.3,0,0.5-0.1L43.7,14L43.7,14z
			 M41,10c-0.9,0-3.2,0.2-3.2,1.9c0,0.9,0.6,1.6,1.2,1.6c1.2,0,2-1.1,2-2.4C41,11,41,10,41,10z"/>
		<path class="st0" d="M44.1,13.7c0.8,0,1.4-0.2,1.4-1.4v-5c0-1.1-0.9-1.2-1.4-1.2V5.9l2.8-0.4v2.4h0c0.3-0.7,1.1-2.4,2.9-2.4
			c1.9,0,2.1,1.1,2.1,2.8v4.2c0,1.2,0.6,1.4,1.4,1.4V14h-4.2v-0.3c0.8,0,1.4-0.2,1.4-1.4V8.6c0-1.6,0-2.3-1.2-2.3
			c-1.1,0-2.4,2.1-2.4,3.8v2.2c0,1.2,0.6,1.4,1.4,1.4V14h-4.2L44.1,13.7L44.1,13.7z"/>
		<path class="st0" d="M55.4,13.6c1.1,0,1.8-0.1,1.8-1.7V2.5c0-1.5-0.7-1.7-1.8-1.7V0.4h4.8c3.4,0,7,0.7,7,6.8c0,6.1-3.8,6.8-7,6.8
			h-4.8C55.4,14,55.4,13.6,55.4,13.6z M59,11.5c0,1.5,0.2,1.7,1.2,1.7c3.5,0,5-1.9,5-6c0-3.8-1.1-6-5-6c-1,0-1.2,0.1-1.2,1.7
			C59,2.9,59,11.5,59,11.5z"/>
		<path class="st0" d="M68,13.7c0.8,0,1.4-0.2,1.4-1.4v-5c0-1.1-0.8-1.2-1.4-1.2V5.9l2.8-0.4v6.9c0,1.2,0.6,1.4,1.4,1.4V14H68
			L68,13.7L68,13.7z M69,2.7c0-0.6,0.5-1,1-1s1,0.5,1,1s-0.5,1-1,1C69.4,3.8,69,3.3,69,2.7z"/>
		<path class="st0" d="M78.8,13.9c-0.4,0.2-1.1,0.3-2.2,0.3c-2.8,0-4.4-1.6-4.4-4.6c0-2.7,1.1-4.1,3.7-4.1c1.6,0,3.1,0.9,3.1,3v0.4
			h-5.3c0,1.5,0.8,4.7,3.8,4.7c0.4,0,0.9-0.1,1.3-0.2L78.8,13.9L78.8,13.9z M77.4,8.3c0-1-0.3-2.2-1.7-2.2c-1.4,0-1.9,1.6-1.9,2.2
			H77.4z"/>
		<path class="st0" d="M84.9,12.5c0.9,0,2.9,0,2.9,2.1c0,2.1-2,3.2-4.5,3.2c-1.8,0-3.7-0.7-3.7-2.3c0-1.1,0.8-1.6,1.4-1.9
			c-0.3-0.2-0.8-0.5-0.8-1.3c0-0.7,0.6-1.4,0.8-1.6c-0.4-0.4-1.1-0.9-1.1-2.4c0-2.3,1.7-2.9,3.4-2.9c0.8,0,1.3,0.2,1.9,0.5
			c0.3-0.7,0.7-2,1.8-2c0.5,0,0.9,0.3,0.9,0.9c0,0.5-0.3,0.8-0.9,0.8c-0.5,0-0.6-0.3-0.8-0.3c-0.4,0-0.6,0.5-0.7,0.8
			c0.2,0.2,0.8,0.9,0.8,2.2c0,1.8-1.2,2.9-3.3,2.9c-0.7,0-1.3-0.1-1.7-0.3c-0.1,0.1-0.3,0.4-0.3,0.8c0,0.7,0.9,0.7,1.5,0.7
			L84.9,12.5L84.9,12.5z M81.8,13.8c-0.4,0.3-0.9,0.6-0.9,1.4c0,1.1,1,2,2.6,2c1.7,0,3.2-0.9,3.2-2.2c0-0.9-0.8-1.2-1.7-1.2
			L81.8,13.8L81.8,13.8z M83.3,10.7c1.5,0,1.7-1.2,1.7-2.2c0-1.4-0.5-2.5-1.8-2.5c-1.4,0-1.7,1.1-1.7,2.1
			C81.6,9.5,82,10.7,83.3,10.7z"/>
		<path class="st0" d="M87.8,9.8c0-2.7,1.5-4.4,3.8-4.4c2.3,0,3.8,1.6,3.8,4.4s-1.5,4.4-3.8,4.4C89.3,14.2,87.8,12.5,87.8,9.8z
			 M91.6,13.6c1.8,0,2.2-2.3,2.2-3.8S93.5,6,91.6,6c-1.8,0-2.2,2.3-2.2,3.8S89.8,13.6,91.6,13.6z"/>
		<path class="st0" d="M98.2,13.6c1.1,0,1.8-0.1,1.8-1.7V2.5c0-1.5-0.7-1.7-1.8-1.7V0.4h5.4v0.4c-1.1,0-1.8,0.1-1.8,1.7v4.1h5.8V2.5
			c0-1.5-0.7-1.7-1.8-1.7V0.4h5.4v0.4c-1.1,0-1.8,0.1-1.8,1.7v9.5c0,1.5,0.7,1.7,1.8,1.7V14h-5.4v-0.4c1.1,0,1.8-0.1,1.8-1.7V7.4
			h-5.8v4.5c0,1.5,0.7,1.7,1.8,1.7V14h-5.4V13.6z"/>
		<path class="st0" d="M117.5,13.9c-0.4,0.2-1.1,0.3-2.2,0.3c-2.8,0-4.4-1.6-4.4-4.6c0-2.7,1.1-4.1,3.7-4.1c1.6,0,3.1,0.9,3.1,3v0.4
			h-5.3c0,1.5,0.8,4.7,3.8,4.7c0.4,0,0.9-0.1,1.3-0.2L117.5,13.9L117.5,13.9z M116.1,8.3c0-1-0.3-2.2-1.7-2.2
			c-1.4,0-1.9,1.6-1.9,2.2H116.1z"/>
		<path class="st0" d="M125.8,14c-0.2,0.1-0.7,0.2-1.3,0.2c-1.1,0-1.4-0.6-1.4-1.3h0c-0.6,0.8-1.3,1.3-2.6,1.3
			c-1.3,0-2.2-0.9-2.2-2.1c0-2.6,3.4-2.6,4.8-2.8V8.7c0-1.3,0-2.6-1.6-2.6c-1.1,0-1.3,0.5-1.3,1.1c0,0.8-0.6,1-0.9,1
			c-0.5,0-0.9-0.3-0.9-0.8c0-1.2,1.8-1.8,3-1.8c2.5,0,2.9,1.2,2.9,2.9v4.5c0,0.6,0.2,0.9,0.8,0.9c0.2,0,0.3,0,0.5-0.1L125.8,14
			L125.8,14z M123.1,10c-0.9,0-3.2,0.2-3.2,1.9c0,0.9,0.6,1.6,1.2,1.6c1.2,0,1.9-1.1,1.9-2.4C123,11,123,10,123.1,10z"/>
		<path class="st0" d="M125.6,13.7c0.8,0,1.4-0.2,1.4-1.4V3.3c0-1.1-0.8-1.1-1.4-1.2V1.8l2.8-0.4v11c0,1.2,0.6,1.4,1.4,1.4V14h-4.2
			L125.6,13.7L125.6,13.7z"/>
		<path class="st0" d="M134.9,14.1c-0.3,0-0.6,0.1-0.9,0.1c-2.8,0-2.9-0.7-2.9-2.7V6.2h-1.5V5.6c1.5,0,2.4-0.8,2.4-2.7h0.5v2.7h2.4
			v0.6h-2.4V12c0,1.4,0.6,1.6,1.6,1.6c0.2,0,0.5-0.1,0.7-0.1L134.9,14.1L134.9,14.1z"/>
		<path class="st0" d="M135.3,13.7c0.8,0,1.4-0.2,1.4-1.4V3.3c0-1.1-0.9-1.1-1.4-1.2V1.8l2.8-0.4v6.5h0c0.3-0.7,1.1-2.4,2.9-2.4
			c1.9,0,2.1,1.1,2.1,2.8v4.2c0,1.2,0.6,1.4,1.4,1.4V14h-4.2v-0.3c0.8,0,1.4-0.2,1.4-1.4V8.6c0-1.6,0-2.3-1.2-2.3
			c-1.1,0-2.4,2.1-2.4,3.8v2.2c0,1.2,0.6,1.4,1.4,1.4V14h-4.2L135.3,13.7L135.3,13.7z"/>
	</g>
</g>
</svg>
