<svg width="16" height="18" viewBox="0 0 16 18" fill="none" xmlns="http://www.w3.org/2000/svg">
<path d="M12.1667 0.666626V2.33329H14.6667C15.1267 2.33329 15.5 2.70663 15.5 3.16663V16.5C15.5 16.96 15.1267 17.3333 14.6667 17.3333H1.33333C0.873333 17.3333 0.5 16.96 0.5 16.5V3.16663C0.5 2.70663 0.873333 2.33329 1.33333 2.33329H3.83333V0.666626H12.1667ZM3.83333 3.99996H2.16667V15.6666H13.8333V3.99996H12.1667V5.66663H3.83333V3.99996ZM8.83333 8.16663V9.83329H10.5V11.5H8.8325L8.83333 13.1666H7.16667L7.16583 11.5H5.5V9.83329H7.16667V8.16663H8.83333ZM10.5 2.33329H5.5V3.99996H10.5V2.33329Z" fill="#F6F4F4"/>
</svg>
