<svg width="14" height="14" viewBox="0 0 14 14" fill="none" xmlns="http://www.w3.org/2000/svg">
<path d="M11.0208 9.95908L13.8762 12.8138L12.9328 13.7571L10.0782 10.9018C9.01599 11.7532 7.69483 12.2164 6.3335 12.2144C3.0215 12.2144 0.333496 9.52642 0.333496 6.21442C0.333496 2.90242 3.0215 0.214417 6.3335 0.214417C9.6455 0.214417 12.3335 2.90242 12.3335 6.21442C12.3354 7.57575 11.8723 8.89691 11.0208 9.95908ZM9.6835 9.46442C10.5296 8.59434 11.0021 7.42804 11.0002 6.21442C11.0002 3.63575 8.9115 1.54775 6.3335 1.54775C3.75483 1.54775 1.66683 3.63575 1.66683 6.21442C1.66683 8.79242 3.75483 10.8811 6.3335 10.8811C7.54712 10.883 8.71342 10.4105 9.5835 9.56442L9.6835 9.46442Z" fill="#13294B"/>
</svg>
