<svg width="16" height="16" viewBox="0 0 16 16" fill="none" xmlns="http://www.w3.org/2000/svg">
<path d="M5.38166 6.87176C6.16361 8.24549 7.30126 9.38315 8.67499 10.1651L9.41166 9.13343C9.53012 8.96754 9.70529 8.85083 9.904 8.80537C10.1027 8.75992 10.3112 8.78887 10.49 8.88676C11.6686 9.53086 12.9702 9.91824 14.3092 10.0234C14.5181 10.04 14.7132 10.1347 14.8555 10.2887C14.9977 10.4427 15.0767 10.6446 15.0767 10.8543V14.5726C15.0767 14.7789 15.0002 14.9779 14.862 15.1311C14.7237 15.2843 14.5336 15.3807 14.3283 15.4018C13.8867 15.4476 13.4417 15.4701 12.9933 15.4701C5.85999 15.4701 0.0766602 9.68676 0.0766602 2.55343C0.0766602 2.10509 0.0991602 1.66009 0.144993 1.21843C0.166039 1.01317 0.26248 0.823027 0.415652 0.684788C0.568823 0.546549 0.767832 0.470048 0.97416 0.470093H4.69249C4.90213 0.470067 5.10407 0.549052 5.25806 0.691302C5.41205 0.833551 5.50677 1.02861 5.52333 1.23759C5.62851 2.57659 6.01589 3.87816 6.65999 5.05676C6.75788 5.23556 6.78684 5.44404 6.74138 5.64276C6.69593 5.84147 6.57921 6.01663 6.41333 6.13509L5.38166 6.87176ZM3.27999 6.32426L4.86333 5.19343C4.41398 4.2235 4.10612 3.19413 3.94916 2.13676H1.75166C1.74666 2.27509 1.74416 2.41426 1.74416 2.55343C1.74333 8.76676 6.77999 13.8034 12.9933 13.8034C13.1325 13.8034 13.2717 13.8009 13.41 13.7951V11.5976C12.3526 11.4406 11.3232 11.1328 10.3533 10.6834L9.22249 12.2668C8.76721 12.0899 8.325 11.881 7.89916 11.6418L7.85083 11.6143C6.21631 10.684 4.86273 9.33044 3.93249 7.69593L3.90499 7.64759C3.66575 7.22175 3.4569 6.77954 3.27999 6.32426Z" fill="#13294B"/>
</svg>
