<svg width="16" height="18" viewBox="0 0 16 18" fill="none" xmlns="http://www.w3.org/2000/svg">
<path d="M11.7433 0.636719V2.30339H14.2433C14.7033 2.30339 15.0767 2.67672 15.0767 3.13672V16.4701C15.0767 16.9301 14.7033 17.3034 14.2433 17.3034H0.909993C0.449993 17.3034 0.0766602 16.9301 0.0766602 16.4701V3.13672C0.0766602 2.67672 0.449993 2.30339 0.909993 2.30339H3.40999V0.636719H11.7433ZM3.40999 3.97005H1.74333V15.6367H13.41V3.97005H11.7433V5.63672H3.40999V3.97005ZM8.40999 8.13672V9.80339H10.0767V11.4701H8.40916L8.40999 13.1367H6.74333L6.74249 11.4701H5.07666V9.80339H6.74333V8.13672H8.40999ZM10.0767 2.30339H5.07666V3.97005H10.0767V2.30339Z" fill="#13294B"/>
</svg>
