<svg width="22" height="21" viewBox="0 0 22 21" fill="none" xmlns="http://www.w3.org/2000/svg">
<path d="M16.7546 15.054L21.0376 19.336L19.6226 20.7509L15.3406 16.468C13.7474 17.7452 11.7656 18.4399 9.72363 18.437C4.75563 18.437 0.723633 14.405 0.723633 9.43695C0.723633 4.46895 4.75563 0.436951 9.72363 0.436951C14.6916 0.436951 18.7236 4.46895 18.7236 9.43695C18.7265 11.479 18.0319 13.4607 16.7546 15.054ZM14.7486 14.312C16.0177 13.0068 16.7265 11.2574 16.7236 9.43695C16.7236 5.56895 13.5906 2.43695 9.72363 2.43695C5.85563 2.43695 2.72363 5.56895 2.72363 9.43695C2.72363 13.304 5.85563 16.437 9.72363 16.437C11.5441 16.4398 13.2935 15.7311 14.5986 14.462L14.7486 14.312Z" fill="white"/>
</svg>