<svg width="378" height="47" viewBox="0 0 378 47" fill="none" xmlns="http://www.w3.org/2000/svg">
<g clip-path="url(#clip0_340_3724)">
<path d="M30.6 23.9C30.6 31.3 29.5 36.8 18.3 36.8C7.10002 36.8 5.60002 31.5 5.60002 23.9V6C5.60002 2 3.90002 1.6 0.900024 1.6V0.5H15V1.6C12.1 1.6 10.3 2 10.3 6V23.8C10.3 29.3 11.6 34.6 18.5 34.6C25.5 34.6 27.5 30.1 27.5 23.8V6C27.5 2 25.7 1.6 22.8 1.6V0.5H35.2V1.6C32.3 1.6 30.5 2 30.5 6V23.9H30.6Z" fill="white"/>
<path d="M60.3 35.3C57.6 36.2 54.6 36.8 50.7 36.8C40 36.8 34.8 28.7 34.8 17.2C34.8 7.3 38 0 49.5 0C53 0 56.5 0.5 59.8 1.5L60.3 9.9H58.9C58.2 6.9 56.1 2.1 49.4 2.1C40.7 2.1 40.1 11.3 40.1 16.8C40.1 23.7 41.6 34.4 53.4 34.4C55.8 34.4 58.1 34 60.3 33V35.3Z" fill="white"/>
<path d="M89.1 8.2C88.6 5.4 86.4 2 80.7 2C77.1 2 73.9 4.3 73.9 7.8C73.9 12.6 80.3 14.1 85 16.9C89.7 19.7 92.1 21.6 92.1 26.7C92.1 33.5 86.2 36.7 78.8 36.7C75.7 36.6 72.6 36.3 69.6 35.7L69.2 28.2H70.6C71 31 73.5 34.4 79.3 34.4C84 34.4 87.1 31.3 87.1 27.6C87.1 21.8 78.2 20.1 73.2 16.2C70.8 14.4 69.7 12.4 69.7 9C69.7 2.6 75 -0.1 81.8 -0.1C84.6 -0.1 87.4 0.2 90.1 0.8L90.5 8.2H89.1Z" fill="white"/>
<path d="M106.9 25.7C104.7 25.8 98.5 26.2 98.5 30.6C98.5 33.1 100.1 34.7 101.7 34.7C104.8 34.7 106.8 31.7 106.8 28.5V25.7H106.9ZM114 36.3C112.9 36.6 111.7 36.7 110.5 36.7C107.7 36.7 106.9 35.3 106.9 33.2H106.8C105.3 35.5 102.7 36.8 100 36.7C96.7 36.7 94.3 34.4 94.3 31.3C94.3 24.4 103.3 24.4 106.9 24.1V22.3C106.9 18.9 106.8 15.4 102.8 15.4C99.9 15.4 99.4 16.6 99.4 18.2C99.4 19.7 98 20.7 97.2 20.7C96.6 20.7 96 20.5 95.6 20.1C95.2 19.7 94.9 19.1 94.9 18.5C94.9 15.4 99.6 13.8 102.8 13.8C109.3 13.8 110.5 16.9 110.5 21.4V33.2C110.5 34.8 111.1 35.4 112.6 35.4C113 35.4 113.5 35.3 113.9 35.2L114 36.3Z" fill="white"/>
<path d="M115.1 35.5C117.1 35.5 118.8 35.1 118.8 32V19C118.8 16.1 116.6 16 115.1 15.9V15L122.5 13.9V20.2H122.6C123.2 18.4 125.4 13.9 130.1 13.9C134.8 13.9 135.6 16.7 135.6 21.1V32C135.6 35.1 137.2 35.5 139.3 35.5V36.3H128.3V35.5C130.3 35.5 132 35.1 132 32V22.2C132 18.1 131.9 16.3 128.8 16.3C125.7 16.3 122.6 21.7 122.6 26.2V32.1C122.6 35.2 124.2 35.6 126.3 35.6V36.4H115.2V35.5H115.1Z" fill="white"/>
<path d="M154.1 29.6C154.1 33.5 154.5 34.1 157.2 34.1C166.4 34.1 170.2 29.2 170.2 18.4C170.2 8.5 167.4 2.6 157.2 2.6C154.5 2.6 154.1 2.9 154.1 7.1V29.6ZM144.7 35.2C147.6 35.2 149.4 34.8 149.4 30.8V6C149.4 2 147.6 1.6 144.7 1.6V0.5H157.2C166.1 0.5 175.5 2.4 175.5 18.4C175.5 34.4 165.6 36.2 157.2 36.2H144.7V35.2Z" fill="white"/>
<path d="M180.2 6.7C180.2 5.2 181.4 4 182.9 4C184.4 4 185.6 5.2 185.6 6.7C185.6 8.2 184.4 9.4 182.9 9.4C181.4 9.4 180.2 8.2 180.2 6.7ZM177.5 35.5C179.5 35.5 181.2 35.1 181.2 32V19C181.2 16.1 179 16 177.5 15.9V15L184.9 13.9V32C184.9 35.1 186.5 35.5 188.6 35.5V36.3H177.6V35.5H177.5Z" fill="white"/>
<path d="M202.1 21.2C202.1 18.7 201.2 15.4 197.6 15.4C193.9 15.4 192.5 19.5 192.5 21.2H202.1ZM205.8 35.9C204 36.5 202.1 36.8 200.1 36.8C192.7 36.8 188.6 32.7 188.6 24.7C188.6 17.7 191.4 13.9 198.3 13.9C202.6 13.9 206.5 16.3 206.5 21.8V22.9H192.6C192.6 26.9 194.5 35.1 202.5 35.1C203.7 35.1 204.8 34.9 205.9 34.5V35.9H205.8Z" fill="white"/>
<path d="M217.7 27.6C221.7 27.6 222.2 24.5 222.2 21.9C222.2 18.3 221 15.5 217.5 15.5C214.1 15.5 213 18.3 213 21C213.1 23.8 214.3 27.6 217.7 27.6ZM213.7 35.9C212.8 36.6 211.4 37.4 211.4 39.6C211.4 41.8 213.9 44.8 218.1 44.8C222.2 44.8 226.5 42.6 226.5 39.1C226.5 36.7 224.5 35.9 222.1 35.9H213.7ZM221.9 32.5C224.2 32.5 229.5 32.6 229.5 37.9C229.5 43.2 224.1 46.3 217.8 46.3C213.1 46.3 208.3 44.5 208.3 40.2C208.3 37.3 210.5 36 212 35.2C210.7 34.6 209.9 33.3 209.9 31.8C209.9 30 211.4 28.2 212 27.7C210.9 26.8 209.2 25.3 209.2 21.3C209.2 15.2 213.7 13.8 218.2 13.8C219.9 13.7 221.6 14.1 223.1 15C223.9 13.2 225 9.9 227.9 9.9C228.5 9.9 229.1 10.1 229.6 10.5C230.1 10.9 230.3 11.5 230.2 12.2C230.2 12.8 230 13.4 229.6 13.8C229.2 14.2 228.6 14.4 228 14.4C226.8 14.4 226.5 13.8 225.9 13.8C225.3 13.8 224.4 15.2 224.2 15.9C225.6 17.5 226.4 19.5 226.3 21.6C226.3 26.4 223.3 29.1 217.6 29.1C216.1 29.2 214.6 28.9 213.2 28.4C212.7 29 212.4 29.7 212.3 30.5C212.3 32.4 214.7 32.4 216.2 32.4L221.9 32.5Z" fill="white"/>
<path d="M239.5 35.2C244.3 35.2 245.2 29.3 245.2 25.3C245.2 21.3 244.3 15.4 239.5 15.4C234.7 15.4 233.8 21.3 233.8 25.3C233.8 29.3 234.7 35.2 239.5 35.2ZM229.5 25.3C229.5 18.2 233.4 13.9 239.5 13.9C245.6 13.9 249.5 18.2 249.5 25.3C249.5 32.4 245.6 36.8 239.5 36.8C233.3 36.8 229.5 32.5 229.5 25.3Z" fill="white"/>
<path d="M256.6 35.2C259.5 35.2 261.3 34.8 261.3 30.8V6C261.3 2 259.5 1.6 256.6 1.6V0.5H270.7V1.6C267.8 1.6 266 2 266 6V16.8H281.2V6C281.2 2 279.4 1.6 276.5 1.6V0.5H290.6V1.6C287.7 1.6 285.9 2 285.9 6V30.8C285.9 34.8 287.6 35.2 290.6 35.2V36.3H276.5V35.2C279.4 35.2 281.2 34.8 281.2 30.8V18.9H266V30.8C266 34.8 267.7 35.2 270.7 35.2V36.3H256.6V35.2Z" fill="white"/>
<path d="M303.6 21.2C303.6 18.7 302.7 15.4 299.1 15.4C295.4 15.4 294 19.5 294 21.2H303.6ZM307.2 35.9C305.4 36.5 303.5 36.8 301.5 36.8C294.1 36.8 290 32.7 290 24.7C290 17.7 292.8 13.9 299.7 13.9C304 13.9 307.9 16.3 307.9 21.8V22.9H293.9C293.9 26.9 295.8 35.1 303.8 35.1C305 35.1 306.1 34.9 307.2 34.5V35.9Z" fill="white"/>
<path d="M321.8 25.6C319.6 25.7 313.4 26.1 313.4 30.5C313.4 33 315 34.6 316.6 34.6C319.7 34.6 321.7 31.6 321.7 28.4V25.6H321.8ZM328.8 36.3C327.7 36.6 326.5 36.7 325.3 36.7C322.5 36.7 321.7 35.3 321.7 33.2H321.6C320.1 35.5 317.6 36.9 314.8 36.7C311.5 36.7 309.1 34.4 309.1 31.3C309.1 24.4 318.1 24.4 321.7 24.1V22.3C321.7 18.9 321.6 15.4 317.6 15.4C314.7 15.4 314.2 16.6 314.2 18.2C314.2 19.7 312.8 20.7 312 20.7C311.4 20.7 310.8 20.5 310.4 20.1C310 19.7 309.7 19.1 309.7 18.5C309.7 15.4 314.4 13.8 317.6 13.8C324.1 13.8 325.3 16.9 325.3 21.4V33.2C325.3 34.8 325.9 35.4 327.4 35.4C327.8 35.4 328.3 35.3 328.7 35.2L328.8 36.3Z" fill="white"/>
<path d="M328.3 35.5C330.3 35.5 332 35.1 332 32V8.1C332 5.3 329.8 5.2 328.3 5V4.2L335.7 3.1V31.9C335.7 35 337.3 35.4 339.4 35.4V36.2H328.4V35.5H328.3Z" fill="white"/>
<path d="M352.7 36.5C351.9 36.6 351.2 36.7 350.4 36.7C343.2 36.7 342.8 34.9 342.8 29.6V15.9H338.9V14.3C342.8 14.3 345.3 12.4 345.3 7.2H346.5V14.3H352.6V15.9H346.5V31C346.5 34.7 348.1 35.2 350.7 35.2C351.3 35.2 352 35.1 352.6 35L352.7 36.5Z" fill="white"/>
<path d="M353.7 35.5C355.7 35.5 357.4 35.1 357.4 32V8.1C357.4 5.3 355.2 5.2 353.7 5V4.2L361.1 3.1V20.1H361.2C361.8 18.3 364 13.8 368.8 13.8C373.6 13.8 374.3 16.6 374.3 21V31.9C374.3 35 375.9 35.4 378 35.4V36.2H367V35.4C368.9 35.4 370.7 35 370.7 31.9V22.1C370.7 18 370.6 16.2 367.5 16.2C364.4 16.2 361.3 21.6 361.3 26.2V32C361.3 35.1 362.9 35.5 365 35.5V36.3H353.9V35.5H353.7Z" fill="white"/>
</g>
<defs>
<clipPath id="clip0_340_3724">
<rect width="377.1" height="46.5" fill="white" transform="translate(0.900024)"/>
</clipPath>
</defs>
</svg>
